<?xml version="1.0" encoding="UTF-8" standalone="no"?>
<!-- Created with Inkscape (http://www.inkscape.org/) -->

<svg
   version="1.1"
   id="svg2708"
   width="1034.1764"
   height="553.75922"
   viewBox="0 0 1034.1764 553.75922"
   sodipodi:docname="Rhino7b.svg"
   inkscape:version="1.2.2 (732a01da63, 2022-12-09, custom)"
   xmlns:inkscape="http://www.inkscape.org/namespaces/inkscape"
   xmlns:sodipodi="http://sodipodi.sourceforge.net/DTD/sodipodi-0.dtd"
   xmlns="http://www.w3.org/2000/svg"
   xmlns:svg="http://www.w3.org/2000/svg">
  <defs
     id="defs2712" />
  <sodipodi:namedview
     id="namedview2710"
     pagecolor="#ffffff"
     bordercolor="#000000"
     borderopacity="0.25"
     inkscape:showpageshadow="2"
     inkscape:pageopacity="0.0"
     inkscape:pagecheckerboard="0"
     inkscape:deskcolor="#d1d1d1"
     showgrid="false"
     inkscape:zoom="0.85817308"
     inkscape:cx="461.44538"
     inkscape:cy="259.85434"
     inkscape:window-width="1920"
     inkscape:window-height="1031"
     inkscape:window-x="0"
     inkscape:window-y="25"
     inkscape:window-maximized="1"
     inkscape:current-layer="layer1" />
  <g
     inkscape:groupmode="layer"
     id="layer1"
     inkscape:label="Layer 1"
     transform="translate(-90.897612,-61.591457)">
    <path
       style="fill:#6c5353;stroke-width:1.33333"
       d="m 544,613.85631 c -5.7334,-1.60895 -10.84753,-1.86404 -23.44069,-1.16923 -18.18154,1.00315 -25.59908,-0.36636 -31.55931,-5.82679 -4.44499,-4.07225 -4.81201,-9.77101 -1,-15.52696 3.68335,-5.56165 3.36413,-7.00612 -2.04799,-9.26745 -6.15513,-2.57179 -9.2178,-9.42312 -7.96042,-17.80788 1.08698,-7.24853 6.41146,-12.62517 15.48824,-15.63999 8.34086,-2.77038 9.87757,-6.54285 9.77449,-23.99524 -0.0877,-14.86122 -0.64647,-17.47597 -10.24673,-47.9561 -9.68479,-30.74847 -14.24236,-43.66636 -16.21982,-45.97308 -0.95568,-1.11482 -3.82074,-5.92692 -6.36682,-10.69359 -2.54608,-4.76667 -7.52663,-13.76667 -11.06786,-20 C 445.23317,375.14592 444.45176,374.27335 428,364.98883 c -8.29216,-4.67967 -28.90673,-24.25886 -32.06989,-30.45915 -2.85358,-5.59349 -6.0244,-7.86301 -10.98566,-7.86301 -2.62112,0 -4.40357,1.98597 -9.44484,10.5232 -3.41769,5.78776 -6.95325,11.10116 -7.8568,11.80756 -1.75629,1.37308 -12.81714,4.3359 -16.18684,4.3359 -2.95125,0 -10.86694,-7.359 -12.71512,-11.8209 -3.24856,-7.84271 -11.58236,-8.80235 -20.92457,-2.40948 -3.56561,2.43994 -9.48295,6.1579 -13.14961,8.26213 -6.71694,3.85471 -37.5219,23.63039 -40,25.67857 -0.73334,0.60611 -5.83334,3.52411 -11.33334,6.48444 -5.5,2.96034 -13.9,7.50079 -18.66666,10.0899 -4.76667,2.58909 -13.76667,6.35129 -20,8.36044 -20.69858,6.6716 -42.86828,16.98078 -45.61115,21.20974 -0.51947,0.80091 -0.36947,2.03122 0.33333,2.73402 0.7028,0.7028 1.27782,2.68842 1.27782,4.41252 0,6.35073 -13.65495,8.8332 -27.83204,5.05986 -8.33648,-2.21882 -11.77963,-5.09317 -19.2395,-16.06124 -2.99264,-4.4 -9.09036,-11.6 -13.55048,-16 -8.7821,-8.66372 -15.788485,-19.84469 -18.285378,-29.18029 -1.439175,-5.38092 -1.267157,-6.57556 1.992791,-13.83969 3.072324,-6.84606 3.54496,-9.60303 3.402561,-19.84778 -0.183464,-13.19906 1.765548,-18.77242 9.741446,-27.85648 4.62776,-5.27072 18.76772,-12.98002 28.13205,-15.338 7.68632,-1.93544 16.34009,-10.58001 20.15468,-20.13328 2.60111,-6.5142 3.58296,-7.47685 12.80024,-12.55004 11.41583,-6.28324 15.68848,-10.12593 22.25432,-20.01478 5.47275,-8.24258 14.33331,-33.93995 15.61883,-45.29772 1.45193,-12.82802 3.55756,-20.89344 7.04782,-26.99611 1.79955,-3.14647 4.191,-8.81581 5.31435,-12.59853 3.95127,-13.30534 19.11219,-30.95978 35.69864,-41.57 9.75377,-6.23942 27.02561,-12.36802 29.07639,-10.31725 1.13996,1.13997 0.77814,2.52727 -1.44246,5.5308 l -2.96409,4.00915 4.37324,5.2e-4 c 2.40529,2.8e-4 7.97325,-1.76318 12.37325,-3.9188 4.4,-2.15562 12.5,-5.58149 18,-7.61305 5.5,-2.031561 12.23902,-5.140568 14.9756,-6.908905 2.73658,-1.768338 7.56018,-3.506479 10.71911,-3.862536 7.04763,-0.794371 9.3356,1.409342 9.3356,8.991801 0,5.30611 0.005,5.31112 5.48484,5.46887 3.01667,0.0868 6.08485,-0.0179 6.81819,-0.23287 13.60573,-3.98743 45.84084,-14.512663 50.66666,-16.543415 14.90172,-6.270772 43.90918,-16.88396 49.33334,-18.04998 C 463.6,70.034392 472,67.927156 479.33333,65.982217 c 23.04839,-6.112865 41.58518,-5.872361 69.83751,0.906103 7.57619,1.817724 17.44436,2.860133 30.66667,3.239428 10.7227,0.307591 27.89582,1.136129 38.16249,1.8412 32.14879,2.207836 65.24157,3.151448 106.66667,3.041503 C 765.71308,74.901517 774.19505,74.15372 824,66.253 c 14.27379,-2.264299 52.8112,-1.795664 69.52753,0.845491 7.59319,1.199712 18.0058,2.763586 23.13914,3.475277 5.13333,0.711689 15.03333,2.545188 22,4.074441 6.96666,1.529252 18.36666,3.66687 25.33333,4.750259 24.19156,3.762043 52.6521,15.955895 66.6667,28.563222 1.8333,1.64924 10.5333,8.75687 19.3333,15.79474 33.189,26.54313 43.6009,38.09108 52.2063,57.90222 10.7325,24.70843 13.8746,42.66819 15.8051,90.34135 0.4603,11.36667 1.7319,26.36667 2.8258,33.33333 4.5035,28.68299 4.98,34.59579 3.4506,42.81967 -2.0668,11.11343 -6.8309,20.83011 -15.6049,31.82667 -9.4179,11.80362 -11.3352,16.4058 -12.4542,29.89469 -0.4925,5.93577 -1.4954,10.73407 -2.2287,10.66288 -3.6797,-0.35719 -6.9203,-10.32711 -8.5329,-26.25209 -2.0721,-20.46186 -0.9023,-37.27186 3.3988,-48.83899 3.2041,-8.61713 3.3427,-11.84801 1.8773,-43.77949 -0.1701,-3.7045 -2.6572,-1.29548 -4.818,4.66666 -1.2625,3.48334 -3.6904,9.5084 -5.3954,13.38904 -3.7368,8.50514 -6.5913,19.92311 -8.5694,34.27763 -1.9214,13.94251 -0.9728,49.31283 1.466,54.66667 2.402,5.27298 8.0268,14.32225 9.9452,16 0.8385,0.73333 3.2011,3.9952 5.2501,7.24858 3.4248,5.43762 3.6673,6.67574 3.003,15.33334 -0.7839,10.21825 -6.8007,34.69788 -12.9656,52.75141 -5.1733,15.14964 -6.5152,25.10719 -6.3599,47.19419 0.1114,15.82644 -0.1926,18.76362 -2.0844,20.14698 -1.2182,0.89071 -2.2148,2.30334 -2.2148,3.13915 0,0.83583 -0.53,1.51968 -1.1778,1.51968 -0.6478,0 -1.4917,1.2 -1.8752,2.66667 -0.4712,1.80197 -1.8187,2.66666 -4.1555,2.66666 -1.902,0 -3.4582,0.675 -3.4582,1.5 0,0.98258 -1.4948,1.19874 -4.3333,0.62663 -2.3833,-0.48036 -13.7833,-0.13013 -25.3333,0.77837 l -21,1.65174 v 4.18933 c 0,3.94737 -1.1955,8.71335 -4.195,16.72448 -0.8007,2.13868 -3.65583,4.64739 -7.43979,6.53719 -6.136,3.06446 -6.17034,3.06605 -48.2528,2.22402 -57.8727,-1.15797 -66.20788,-2.84581 -69.00047,-13.97234 -1.00549,-4.00624 2.98113,-12.25331 10.57076,-21.8675 5.24576,-6.64509 10.91325,-10.21474 20.98393,-13.21665 5.8231,-1.73579 11.3892,-6.48279 25.65022,-21.87556 4.62774,-4.99501 5.16738,-6.47352 7.78652,-21.33333 2.97916,-16.90236 2.89172,-27.6494 -0.4148,-50.98376 -1.32968,-9.38375 -2.26259,-11.89527 -6.29156,-16.93787 -12.63076,-15.80848 -19.93864,-28.83427 -20.03206,-35.70577 -0.0175,-1.28024 -2.05517,-6.68024 -4.52836,-12 -3.29844,-7.0949 -5.67912,-10.35624 -8.93397,-12.23892 l -4.43727,-2.56662 -4.06602,5.22487 C 883.11251,408.16696 874.33905,414.52049 860,418.76145 c -5.5,1.6267 -17.86729,6.70315 -27.48287,11.28102 -20.15208,9.59417 -43.07513,17.14953 -58.76946,19.37022 -12.62423,1.78628 -48.88527,0.68832 -67.80947,-2.05321 -15.52787,-2.24952 -53.00981,-12.90421 -66.11528,-18.79407 l -10.17708,-4.57377 -18.92567,0.50693 c -10.40912,0.2788 -19.52856,1.10982 -20.26541,1.84667 -0.89743,0.89743 0.71201,7.11623 4.87492,18.83651 3.41807,9.62322 7.09555,22.9692 8.17219,29.6577 1.7584,10.92382 1.73917,13.19515 -0.18891,22.3274 -1.18055,5.59156 -2.49749,18.0858 -2.92655,27.76496 -0.64861,14.63194 -0.36013,19.23947 1.71131,27.33334 1.94736,7.60906 2.45532,14.15649 2.32613,29.98333 l -0.16526,20.24849 -4.75259,4.75258 -4.75259,4.75258 -18.3767,1.28686 c -10.10719,0.70777 -19.87671,1.588 -21.71004,1.95605 -1.83334,0.36805 -6.63334,-0.25688 -10.66667,-1.38873 z"
       id="path3189-3" />
    <path
       style="fill:#ffff00;stroke-width:1.33333"
       d="m 234.75445,286.86369 c 3.01403,-2.44061 3.01968,-2.5008 0.48104,-5.11986 -3.68138,-3.79802 -7.11748,-4.71899 -9.33456,-2.50191 -2.48818,2.48819 -2.40134,4.66181 0.30572,7.65309 2.78754,3.0802 4.71396,3.07314 8.5478,-0.0313 z"
       id="path3239" />
    <path
       style="fill:#000000;stroke-width:1.33333"
       d="m 544,613.85631 c -5.7334,-1.60895 -10.84753,-1.86404 -23.44069,-1.16923 -18.18154,1.00315 -25.59908,-0.36636 -31.55931,-5.82679 -4.44499,-4.07225 -4.81201,-9.77101 -1,-15.52696 3.68335,-5.56165 3.36413,-7.00612 -2.04799,-9.26745 -6.15513,-2.57179 -9.2178,-9.42312 -7.96042,-17.80788 1.08698,-7.24853 6.41146,-12.62517 15.48824,-15.63999 8.34086,-2.77038 9.87757,-6.54285 9.77449,-23.99524 -0.0877,-14.86122 -0.64647,-17.47597 -10.24673,-47.9561 -9.68479,-30.74847 -14.24236,-43.66636 -16.21982,-45.97308 -0.95568,-1.11482 -3.82074,-5.92692 -6.36682,-10.69359 -2.54608,-4.76667 -7.52663,-13.76667 -11.06786,-20 C 445.23317,375.14592 444.45176,374.27335 428,364.98883 c -8.29216,-4.67967 -28.90673,-24.25886 -32.06989,-30.45915 -2.85358,-5.59349 -6.0244,-7.86301 -10.98566,-7.86301 -2.62112,0 -4.40357,1.98597 -9.44484,10.5232 -3.41769,5.78776 -6.95325,11.10116 -7.8568,11.80756 -1.75629,1.37308 -12.81714,4.3359 -16.18684,4.3359 -2.95125,0 -10.86694,-7.359 -12.71512,-11.8209 -3.24856,-7.84271 -11.58236,-8.80235 -20.92457,-2.40948 -3.56561,2.43994 -9.48295,6.1579 -13.14961,8.26213 -6.71694,3.85471 -37.5219,23.63039 -40,25.67857 -0.73334,0.60611 -5.83334,3.52411 -11.33334,6.48444 -5.5,2.96034 -13.9,7.50079 -18.66666,10.0899 -4.76667,2.58909 -13.76667,6.35129 -20,8.36044 -20.69858,6.6716 -42.86828,16.98078 -45.61115,21.20974 -0.51947,0.80091 -0.36947,2.03122 0.33333,2.73402 0.7028,0.7028 1.27782,2.68842 1.27782,4.41252 0,6.35073 -13.65495,8.8332 -27.83204,5.05986 -8.33648,-2.21882 -11.77963,-5.09317 -19.2395,-16.06124 -2.99264,-4.4 -9.09036,-11.6 -13.55048,-16 -8.7821,-8.66372 -15.788485,-19.84469 -18.285378,-29.18029 -1.439175,-5.38092 -1.267157,-6.57556 1.992791,-13.83969 3.072324,-6.84606 3.54496,-9.60303 3.402561,-19.84778 -0.183464,-13.19906 1.765548,-18.77242 9.741446,-27.85648 4.62776,-5.27072 18.76772,-12.98002 28.13205,-15.338 7.68632,-1.93544 16.34009,-10.58001 20.15468,-20.13328 2.60111,-6.5142 3.58296,-7.47685 12.80024,-12.55004 11.41583,-6.28324 15.68848,-10.12593 22.25432,-20.01478 5.47275,-8.24258 14.33331,-33.93995 15.61883,-45.29772 1.45193,-12.82802 3.55756,-20.89344 7.04782,-26.99611 1.79955,-3.14647 4.191,-8.81581 5.31435,-12.59853 3.95127,-13.30534 19.11219,-30.95978 35.69864,-41.57 9.75377,-6.23942 27.02561,-12.36802 29.07639,-10.31725 1.13996,1.13997 0.77814,2.52727 -1.44246,5.5308 l -2.96409,4.00915 4.37324,5.2e-4 c 2.40529,2.8e-4 7.97325,-1.76318 12.37325,-3.9188 4.4,-2.15562 12.5,-5.58149 18,-7.61305 5.5,-2.031561 12.23902,-5.140568 14.9756,-6.908905 2.73658,-1.768338 7.56018,-3.506479 10.71911,-3.862536 7.04763,-0.794371 9.3356,1.409342 9.3356,8.991801 0,5.30611 0.005,5.31112 5.48484,5.46887 3.01667,0.0868 6.08485,-0.0179 6.81819,-0.23287 13.60573,-3.98743 45.84084,-14.512663 50.66666,-16.543415 14.90172,-6.270772 43.90918,-16.88396 49.33334,-18.04998 C 463.6,70.034392 472,67.927156 479.33333,65.982217 c 23.04839,-6.112865 41.58518,-5.872361 69.83751,0.906103 7.57619,1.817724 17.44436,2.860133 30.66667,3.239428 10.7227,0.307591 27.89582,1.136129 38.16249,1.8412 32.14879,2.207836 65.24157,3.151448 106.66667,3.041503 C 765.71308,74.901517 774.19505,74.15372 824,66.253 c 14.27379,-2.264299 52.8112,-1.795664 69.52753,0.845491 7.59319,1.199712 18.0058,2.763586 23.13914,3.475277 5.13333,0.711689 15.03333,2.545188 22,4.074441 6.96666,1.529252 18.36666,3.66687 25.33333,4.750259 24.19156,3.762043 52.6521,15.955895 66.6667,28.563222 1.8333,1.64924 10.5333,8.75687 19.3333,15.79474 33.189,26.54313 43.6009,38.09108 52.2063,57.90222 10.7325,24.70843 13.8746,42.66819 15.8051,90.34135 0.4603,11.36667 1.7319,26.36667 2.8258,33.33333 4.5035,28.68299 4.98,34.59579 3.4506,42.81967 -2.0668,11.11343 -6.8309,20.83011 -15.6049,31.82667 -9.4179,11.80362 -11.3352,16.4058 -12.4542,29.89469 -0.4925,5.93577 -1.4954,10.73407 -2.2287,10.66288 -3.6797,-0.35719 -6.9203,-10.32711 -8.5329,-26.25209 -2.0721,-20.46186 -0.9023,-37.27186 3.3988,-48.83899 3.2041,-8.61713 3.3427,-11.84801 1.8773,-43.77949 -0.1701,-3.7045 -2.6572,-1.29548 -4.818,4.66666 -1.2625,3.48334 -3.6904,9.5084 -5.3954,13.38904 -3.7368,8.50514 -6.5913,19.92311 -8.5694,34.27763 -1.9214,13.94251 -0.9728,49.31283 1.466,54.66667 2.402,5.27298 8.0268,14.32225 9.9452,16 0.8385,0.73333 3.2011,3.9952 5.2501,7.24858 3.4248,5.43762 3.6673,6.67574 3.003,15.33334 -0.7839,10.21825 -6.8007,34.69788 -12.9656,52.75141 -5.1733,15.14964 -6.5152,25.10719 -6.3599,47.19419 0.1114,15.82644 -0.1926,18.76362 -2.0844,20.14698 -1.2182,0.89071 -2.2148,2.30334 -2.2148,3.13915 0,0.83583 -0.53,1.51968 -1.1778,1.51968 -0.6478,0 -1.4917,1.2 -1.8752,2.66667 -0.4712,1.80197 -1.8187,2.66666 -4.1555,2.66666 -1.902,0 -3.4582,0.675 -3.4582,1.5 0,0.98258 -1.4948,1.19874 -4.3333,0.62663 -2.3833,-0.48036 -13.7833,-0.13013 -25.3333,0.77837 l -21,1.65174 v 4.18933 c 0,3.94737 -1.1955,8.71335 -4.195,16.72448 -0.8007,2.13868 -3.65583,4.64739 -7.43979,6.53719 -6.136,3.06446 -6.17034,3.06605 -48.2528,2.22402 -57.8727,-1.15797 -66.20788,-2.84581 -69.00047,-13.97234 -1.00549,-4.00624 2.98113,-12.25331 10.57076,-21.8675 5.24576,-6.64509 10.91325,-10.21474 20.98393,-13.21665 5.8231,-1.73579 11.3892,-6.48279 25.65022,-21.87556 4.62774,-4.99501 5.16738,-6.47352 7.78652,-21.33333 2.97916,-16.90236 2.89172,-27.6494 -0.4148,-50.98376 -1.32968,-9.38375 -2.26259,-11.89527 -6.29156,-16.93787 -12.63076,-15.80848 -19.93864,-28.83427 -20.03206,-35.70577 -0.0175,-1.28024 -2.05517,-6.68024 -4.52836,-12 -3.29844,-7.0949 -5.67912,-10.35624 -8.93397,-12.23892 l -4.43727,-2.56662 -4.06602,5.22487 C 883.11251,408.16696 874.33905,414.52049 860,418.76145 c -5.5,1.6267 -17.86729,6.70315 -27.48287,11.28102 -20.15208,9.59417 -43.07513,17.14953 -58.76946,19.37022 -12.62423,1.78628 -48.88527,0.68832 -67.80947,-2.05321 -15.52787,-2.24952 -53.00981,-12.90421 -66.11528,-18.79407 l -10.17708,-4.57377 -18.92567,0.50693 c -10.40912,0.2788 -19.52856,1.10982 -20.26541,1.84667 -0.89743,0.89743 0.71201,7.11623 4.87492,18.83651 3.41807,9.62322 7.09555,22.9692 8.17219,29.6577 1.7584,10.92382 1.73917,13.19515 -0.18891,22.3274 -1.18055,5.59156 -2.49749,18.0858 -2.92655,27.76496 -0.64861,14.63194 -0.36013,19.23947 1.71131,27.33334 1.94736,7.60906 2.45532,14.15649 2.32613,29.98333 l -0.16526,20.24849 -4.75259,4.75258 -4.75259,4.75258 -18.3767,1.28686 c -10.10719,0.70777 -19.87671,1.588 -21.71004,1.95605 -1.83334,0.36805 -6.63334,-0.25688 -10.66667,-1.38873 z m -22.96696,-11.18964 c 5.52568,0 6.72176,-2.7539 3.82991,-8.81815 -2.63735,-5.5306 -7.16546,-7.48211 -14.6199,-6.30083 -6.91469,1.09574 -14.66038,8.1461 -14.00716,12.74975 0.35703,2.51617 1.45792,3.15587 6.43078,3.73672 3.3,0.38545 7.79604,0.23545 9.9912,-0.33333 2.19516,-0.56879 5.96398,-1.03416 8.37517,-1.03416 z m 37.43467,-0.1304 c 4.73628,-1.65108 5.54062,-5.36071 2.1973,-10.13398 -5.26106,-7.51126 -23.33168,-3.01974 -23.33168,5.79915 0,5.31363 11.53794,7.68013 21.13438,4.33479 z m 428.49045,-1.41186 c 5.35685,-2.7431 9.06953,-12.28049 10.37047,-26.64041 1.39906,-15.44319 2.64169,-20.60764 6.46387,-26.8646 1.4401,-2.35732 4.2527,-9.08603 6.2503,-14.95269 5.0193,-14.74068 7.9046,-20.14463 15.4026,-28.84839 3.5607,-4.13328 7.7425,-10.73328 9.2929,-14.66667 3.184,-8.07781 2.9456,-13.67973 -1.4108,-33.15161 -1.3946,-6.23333 -2.9069,-14.78333 -3.3608,-19 -0.4539,-4.21667 -1.3564,-7.66667 -2.0056,-7.66667 -0.6493,0 -7.5156,2.79048 -15.2586,6.20107 -7.743,3.41057 -14.4389,5.84032 -14.87981,5.39941 -1.35224,-1.35225 5.27211,-8.63456 9.51061,-10.45532 10.3527,-4.44721 19.7706,-12.8818 28.4191,-25.45188 2.3471,-3.4114 7.2386,-9.25292 10.87,-12.98116 7.8742,-8.08412 8.9118,-12.05576 6.8959,-26.39376 -2.3595,-16.7808 3.048,-34.4257 14.5726,-47.55152 6.038,-6.87694 14.5758,-28.18672 14.5758,-36.38034 0,-3.39906 -2.4771,-1.61102 -5.9295,4.28013 -3.4408,5.87113 -6.0705,7.72061 -6.0705,4.26927 0,-0.95191 1.7881,-6.80191 3.9737,-13 2.1855,-6.1981 3.9855,-12.65654 4,-14.35207 0.026,-3.00641 1.4014,-8.05425 6.925,-25.40783 4.621,-14.51777 0.8952,-31.9474 -12.7385,-59.59141 -4.6794,-9.48821 -8.2033,-17.76769 -7.8309,-18.39885 0.9611,-1.62882 10.165,9.06662 15.6745,18.21462 7.4586,12.3844 12.5237,25.62887 13.5131,35.33522 0.5148,5.05069 1.9325,10.37932 3.2628,12.26438 2.1191,3.00251 2.2174,4.78334 0.9912,17.94336 -0.9855,10.57706 -0.9405,16.64996 0.1629,22 0.8384,4.06448 2.0831,23.28998 2.766,42.72331 l 1.2418,35.33333 -3.4529,10.45124 c -2.4614,7.45004 -3.0415,10.86262 -2.0204,11.88379 1.0212,1.02117 1.8202,0.41299 2.7825,-2.11791 0.7424,-1.95274 2.1995,-3.55045 3.2381,-3.55045 1.0385,0 2.9013,-2.55 4.1396,-5.66667 1.2383,-3.11666 3.4729,-6.9793 4.9659,-8.58364 4.1999,-4.51325 4.2958,-12.57354 0.4256,-35.74969 -2.8989,-17.35905 -3.6774,-27.04636 -4.179,-52 -0.7994,-39.77167 -2.491,-49.43327 -12.256,-70 -4.2956,-9.04732 -9.5766,-17.39261 -16.8749,-26.66667 -4.6268,-5.87941 -21.0901,-21.48112 -30.7101,-29.10297 -5.1334,-4.0671 -12.9334,-10.69105 -17.3334,-14.71988 -4.4,-4.02884 -11.9,-9.83062 -16.6666,-12.89284 C 1005.9083,98.991069 990.04336,92 986.03319,92 984.83493,92 972.03727,89.644195 957.59393,86.764876 943.1506,83.885559 925.33333,80.619735 918,79.507489 c -7.33333,-1.112245 -18.43333,-2.803362 -24.66667,-3.758038 -17.34764,-2.656906 -62.8125,-2.293394 -80,0.639636 -13.33958,2.276388 -18.79105,3.008457 -48,6.44585 -17.9605,2.113646 -92.8358,1.966642 -126,-0.247377 -30.14069,-2.012171 -45.44869,-2.190207 -52.35549,-0.608907 -3.50508,0.802483 -4.95981,2.25993 -7.45064,7.464516 -3.07755,6.430542 -3.08923,6.655002 -2.05428,39.455971 1.18324,37.50057 1.90252,46.76138 4.61167,59.37477 2.29774,10.69798 9.10213,29.83402 16.34714,45.97321 9.88787,22.02648 13.43767,32.04295 16.50395,46.56923 2.69923,12.78738 3.02665,17.69413 2.74821,41.18365 -0.17385,14.66667 -0.8209,33.00944 -1.43788,40.76171 -1.036,13.01712 -1.50454,14.71517 -6.12685,22.2039 -5.98923,9.70331 -9.79429,13.4882 -14.94489,14.8657 -3.07714,0.82294 -3.84094,1.7721 -3.84094,4.77301 0,5.75897 6.66218,8.72901 19.58024,8.72901 13.1965,0 22.12038,1.93043 33.7531,7.30155 8.43101,3.8928 13.81933,5.57611 38,11.87123 4.03333,1.05002 10.93333,2.99794 15.33333,4.32872 6.89113,2.08422 13.17469,2.42506 45.33333,2.45905 35.04763,0.0371 38.02722,-0.15096 48.66667,-3.07065 10.09439,-2.77011 20.9164,-6.60064 26.66667,-9.43886 10.83362,-5.34726 17.4139,-9.30782 21.33333,-12.84016 12.12685,-10.9292 17.33333,-12.88156 17.33333,-6.49977 0,3.99555 0.16132,3.99177 8.73882,-0.20481 4.09962,-2.00576 10.65209,-7.20518 15.79956,-12.53703 12.50937,-12.95744 11.6465,-17.22867 -2.41746,-11.96667 -4.20104,1.57182 -7.9328,2.5633 -8.2928,2.20331 -0.59172,-0.59173 3.8394,-4.55361 12.75795,-11.40692 l 3.25273,-2.49952 -3.74794,-19.18307 c -2.40022,-12.28498 -3.998,-25.54992 -4.44331,-36.88882 -0.38245,-9.73818 -1.20961,-18.02358 -1.83812,-18.41203 -3.50283,-2.16487 -0.007,-10.83377 7.80661,-19.35968 2.0048,-2.18752 4.51567,-8.36996 6.76883,-16.66667 3.17179,-11.67936 3.60836,-15.828 3.81372,-36.2403 0.1276,-12.6781 0.6414,-26.02852 1.14191,-29.66759 0.78506,-5.70819 0.34869,-7.81597 -3.17887,-15.35419 -4.96945,-10.61948 -6.91644,-21.92712 -3.77548,-21.92712 1.13467,0 3.32253,2.03792 4.86192,4.52871 4.40465,7.12687 8.65252,9.25677 16.78721,8.41719 3.82678,-0.39495 9.41044,-1.96935 12.40814,-3.49867 2.99769,-1.52931 6.83226,-2.78056 8.52126,-2.78056 1.689,0 6.24531,-2.13776 10.12511,-4.75057 3.8798,-2.61282 8.0718,-4.54862 9.31553,-4.3018 3.1348,0.6221 -11.5812,12.32105 -20.76137,16.5049 -3.91245,1.78311 -10.21052,6.43975 -14.22047,10.51431 -6.39594,6.49899 -7.45358,8.39343 -9.49464,17.00676 -3.07434,12.97388 -3.8981,30.24355 -2.08516,43.71472 1.20235,8.93419 1.14036,11.70569 -0.32454,14.51089 -18.28783,35.01976 -20.25064,40.78539 -19.96235,58.63811 0.22601,13.99589 5.00859,44.77433 7.42979,47.81467 2.7006,3.39118 3.95253,-0.009 3.0627,-8.31798 -1.44736,-13.51521 2.20254,-31.09245 9.99815,-48.14936 5.21612,-11.41296 7.23387,-13.77002 9.68737,-11.31652 1.11438,1.11438 1.03539,2.61691 -0.30578,5.81716 -12.40854,29.60864 -15.1268,58.77596 -6.92304,74.28492 1.36634,2.58306 7.52828,14.59646 13.69318,26.69646 6.1649,12.1 14.26618,25.9 18.00283,30.66666 3.73665,4.76667 8.57213,12.01803 10.74551,16.11412 3.89257,7.33627 3.9636,7.84391 4.75749,34 0.86848,28.61403 -0.70849,44.13152 -5.17813,50.95306 -3.13308,4.78168 -9.79246,12.21568 -21.84166,24.38233 -8.02564,8.10385 -11.87512,10.88548 -19.35186,13.98359 -9.92148,4.11112 -12.49567,6.29734 -16.69692,14.18045 -3.36242,6.30913 -3.38412,11.2258 -0.0573,13.00621 2.76098,1.47763 23.80287,1.91748 27.31194,0.57092 1.19757,-0.45954 2.09844,-2.33232 2.0845,-4.33333 -0.0189,-2.72352 -1.43917,-4.43263 -6.25217,-7.52401 -6.68789,-4.29563 -7.64535,-5.66846 -5.88844,-8.44306 0.82312,-1.29992 2.79372,-1.5261 7.34699,-0.8433 9.18184,1.3769 14.40533,5.44244 17.00092,13.23208 2.56268,7.69092 3.67434,8.24988 17.7026,8.90106 8.89024,0.41268 10.70657,0.13014 11.96469,-1.86152 1.15545,-1.82909 0.89389,-3.44994 -1.18337,-7.33333 -2.5712,-4.8068 -2.95142,-4.99989 -10.62055,-5.39371 -12.70597,-0.65246 -14.52341,-5.07694 -3.44845,-8.39508 4.27102,-1.27962 5.72646,-1.08532 10.63777,1.42024 6.65995,3.39766 9.43123,2.81119 9.43123,-1.99586 0,-7.53211 -2.22388,-8.71974 -25.15734,-13.43483 -7.02432,-1.44419 -0.91256,-2.05681 11.34866,-1.13756 11.84152,0.8878 13.38158,1.31932 16.75764,4.69536 3.63677,3.63679 3.7177,4.05132 3.7177,19.04249 0,11.02996 0.4671,15.50398 1.66667,15.96415 1.92299,0.73768 7.29105,-0.25229 10.62483,-1.95943 z M 982.98684,437 c 0.57991,-1.78197 9.05707,-6.79008 14.01316,-8.27864 5.1767,-1.55484 3.3582,1.77685 -3.26104,5.97467 -6.47833,4.10844 -11.70375,5.22814 -10.75212,2.30397 z m -393.61785,159.16948 3.83052,-3.83053 -0.55011,-19.83614 c -0.30256,-10.90988 -1.30947,-23.13614 -2.23755,-27.16948 -2.37885,-10.33814 -1.63968,-25.52305 2.22423,-45.69198 l 3.32451,-17.35343 -3.79802,-10.81063 c -2.08892,-5.94584 -5.96196,-16.81062 -8.60677,-24.14396 -2.81017,-7.79186 -5.17469,-17.27124 -5.68925,-22.80833 -0.87619,-9.42843 -0.92064,-9.51516 -9.0402,-17.64297 -4.48783,-4.49239 -9.65968,-9.41035 -11.49302,-10.92882 L 554,393.19239 l 3.33333,0.84316 c 1.83334,0.46373 5.13334,1.62104 7.33334,2.57178 2.2,0.95076 6.5061,2.10312 9.56913,2.56082 5.43917,0.81276 5.68807,0.67848 10.66667,-5.75479 2.80364,-3.62284 6.76786,-7.30412 8.80938,-8.18064 5.00966,-2.15088 8.95482,-7.44387 8.95482,-12.01415 0,-2.06532 0.9,-7.21046 2,-11.43365 3.7523,-14.40607 2.03209,-45.39273 -3.80007,-68.45159 -1.93213,-7.63917 -9.82013,-29.01545 -11.56223,-31.33333 -1.96453,-2.61385 -9.20968,-21.44723 -10.77152,-28 -0.87394,-3.66667 -2.42972,-8.34172 -3.45728,-10.389 -4.43933,-8.8448 -10.34501,-43.68961 -11.68505,-68.94433 -1.83549,-34.5924 -3.11541,-44.75254 -6.74729,-53.5609 -6.42182,-15.574699 -8.47003,-19.39897 -12.90122,-24.088103 -6.34325,-6.712515 -18.04148,-8.682532 -39.46164,-6.645462 -23.86934,2.269991 -40.09913,6.61059 -73.6137,19.687724 -23.59402,9.206211 -40.14066,14.815241 -60.83223,20.621101 l -9.49891,2.6653 0.52642,12.32683 c 0.76065,17.81209 2.96564,30.22997 6.4504,36.32684 5.48301,9.59297 6.68765,19.01123 6.68765,52.28636 0,27.15484 -0.27363,31.22657 -2.22995,33.18232 -4.20045,4.19924 -5.91258,1.45539 -8.1608,-13.07837 -2.09596,-13.54952 -5.87292,-26.94488 -15.12274,-53.63432 -3.37668,-9.7431 -4.80571,-16.52782 -5.40603,-25.66667 -0.95649,-14.56143 1.03372,-16.85733 3.54485,-4.08932 1.92606,9.79309 3.42167,13 6.06284,13 2.0665,0 2.24706,0.63864 4.5776,16.19156 1.39223,9.29101 5.46683,22.98549 7.42023,24.93888 0.43577,0.43579 1.36452,-0.0903 2.06385,-1.16905 2.34515,-3.61747 -2.70604,-37.83584 -6.72273,-45.54203 -3.64097,-6.98536 -5.28044,-14.89759 -5.91509,-28.54673 -0.29158,-6.27102 -0.86683,-11.73855 -1.27834,-12.15005 -2.05413,-2.05413 -8.92988,2.96751 -11.59154,8.46579 -2.46992,5.10217 -2.6364,6.44561 -1.22191,9.8605 1.09535,2.64438 1.20079,4.50504 0.31844,5.619 -0.72555,0.91601 -2.33536,4.78108 -3.57736,8.58905 -1.92819,5.91175 -2.92825,7.14472 -6.84309,8.43673 -2.5217,0.83224 -4.5849,2.09038 -4.5849,2.79586 0,0.70549 -3.83132,5.36208 -8.51402,10.34797 -4.68272,4.98589 -10.09026,11.56215 -12.01674,14.61389 -1.92648,3.05175 -4.33097,5.54863 -5.34332,5.54863 -2.6656,0 -3.59261,-3.47563 -2.02601,-7.59611 0.74713,-1.96512 1.18031,-5.0786 0.9626,-6.91882 -0.34889,-2.94907 0.29581,-3.51499 5.43604,-4.77166 7.24832,-1.77204 12.88617,-8.07726 13.88572,-15.52941 0.39168,-2.92021 2.93668,-9.03125 5.65555,-13.58007 4.55418,-7.61942 4.95717,-9.12766 5.11845,-19.15617 0.167,-10.38435 0.38995,-11.14066 4.84173,-16.42551 6.06494,-7.19985 6.69082,-9.220909 1.87423,-6.05213 -2.13083,1.40185 -5.47699,3.35243 -7.43591,4.33463 -1.95893,0.9822 -4.7902,3.71544 -6.2917,6.07387 -1.50152,2.35842 -4.06504,5.93688 -5.69672,7.95211 -2.8725,3.54774 -2.88768,3.72184 -0.47827,5.48364 2.41484,1.76578 2.40113,1.98703 -0.46352,7.48299 -3.87161,7.42785 -6.90752,19.29048 -6.08805,23.78871 0.35876,1.96933 0.0952,4.42016 -0.58558,5.44629 -1.03808,1.56457 -2.06613,1.43763 -6.3695,-0.78649 -4.34402,-2.24512 -5.38628,-3.65702 -6.79068,-9.19903 -1.8414,-7.26647 -0.6142,-17.57251 2.90218,-24.37243 1.10694,-2.14058 5.44984,-6.95552 9.6509,-10.69986 6.06604,-5.40657 7.05857,-6.80788 4.82194,-6.80788 -1.54897,0 -6.61874,1.95511 -11.26616,4.3447 -11.3391,5.8303 -13.55709,10.26474 -13.68766,27.36579 -0.0947,12.39195 -0.13584,12.54392 -4.44987,16.39868 -4.71167,4.21009 -9.28247,5.05531 -10.47881,1.93769 -0.41222,-1.07422 1.18341,-5.33148 3.54584,-9.46057 3.78445,-6.61455 4.20065,-8.30671 3.4994,-14.22768 -0.43775,-3.69614 -1.133,-7.05734 -1.545,-7.46934 C 276.57935,128.13491 260,138.9828 260,141.33361 c 0,0.65884 1.88049,2.95536 4.17887,5.10339 2.3106,2.15944 3.76566,4.57405 3.25464,5.40091 -0.53807,0.87061 -4.75807,1.49542 -10.10018,1.49542 -5.04677,0 -9.5438,0.59519 -9.99338,1.32263 -0.44959,0.72744 1.91501,2.97308 5.25465,4.99029 5.92253,3.57735 7.82211,7.3969 4.34269,8.73207 -0.95116,0.365 -5.00985,-0.71975 -9.01932,-2.41053 -6.17032,-2.60204 -8.27441,-2.89026 -13.70013,-1.87662 -11.59475,2.16614 -17.12696,8.91112 -19.09689,23.28332 l -0.7902,5.76516 12.57785,-0.75041 c 11.67385,-0.69647 12.93052,-0.5218 17.48479,2.43019 5.72065,3.70801 6.63556,5.92086 1.27328,3.07962 -6.43002,-3.40697 -26.55476,0.3288 -31.32854,5.81554 -1.09364,1.25697 -3.3074,6.48541 -4.91945,11.61874 -3.99245,12.71338 -11.29065,27.25824 -17.05863,33.99683 -3.67628,4.29491 -4.74188,6.6734 -4.60622,10.28147 0.20245,5.38556 -1.32275,8.86206 -6.1662,14.05504 -6.78472,7.27433 -11.33331,3.04414 -4.92096,-4.5765 3.62906,-4.3129 4.0518,-5.82209 1.98806,-7.09754 -2.53992,-1.56976 -6.64917,0.85441 -7.50864,4.42957 -1.66441,6.92357 -8.8046,19.01081 -12.30658,20.8332 -6.96594,3.62497 -9.45107,7.72343 -10.69626,17.64016 -0.64757,5.15727 -2.36517,12.01556 -3.81688,15.24064 -3.30136,7.33421 -18.54953,25.19995 -23.76002,27.83877 -8.56176,4.33606 -13.71685,8.39991 -17.71144,13.96227 -2.30353,3.20761 -4.188243,6.7342 -4.188243,7.83685 0,4.92311 6.005703,15.18559 12.911643,22.0633 4.1397,4.12277 9.11376,9.98314 11.05348,13.02305 4.04012,6.33163 14.1639,16.46407 16.47701,16.49109 0.85683,0.0107 2.90787,0.38 4.55787,0.82219 2.90172,0.77763 3,0.49856 3,-8.51821 v -9.32218 l -4.17422,-0.83484 c -3.92246,-0.78449 -4.12842,-1.11696 -3.4151,-5.51266 1.62938,-10.04071 8.72262,-15.313 23.25598,-17.28584 6.41306,-0.87055 7,-0.72826 7,1.69701 0,1.62424 -1.15933,2.95005 -3,3.43081 -4.94037,1.29038 -12.12152,6.2534 -10.84468,7.49495 1.54387,1.50119 25.40167,-6.54688 34.04783,-11.48553 3.69484,-2.11047 7.85653,-4.4905 9.24819,-5.28894 1.39166,-0.79844 3.58444,-2.39388 4.87281,-3.54544 8.17968,-7.31093 23.47104,-11.492 25.23336,-6.89946 1.16657,3.04004 -1.48741,4.93993 -14.22417,10.1825 -6.23334,2.5657 -15.17636,7.15098 -19.87339,10.18951 -4.69703,3.03853 -9.05356,5.5246 -9.68119,5.5246 -1.0478,0 -9.31256,3.46675 -16.8925,7.08573 -3.72824,1.78002 -7.64338,8.69048 -5.90723,10.42663 1.53101,1.53101 9.57396,-1.27201 18.35431,-6.39664 7.40992,-4.32477 25.54394,-11.64095 32.512,-13.11699 5.49029,-1.163 11.23788,-3.7528 23.488,-10.58342 33.22968,-18.52879 46.52793,-27.47851 54.60242,-36.74743 2.23534,-2.566 8.56424,-9.19937 14.06424,-14.74083 13.58951,-13.69193 24.54506,-26.39849 27.1226,-31.45758 3.72552,-7.3123 5.06859,-16.60974 5.10487,-35.33868 0.0346,-17.88143 -0.66844,-23.79746 -2.82815,-23.79746 -0.59821,0 -3.33572,3.75 -6.08334,8.33334 -4.81091,8.02508 -6.49096,12.96362 -10.7579,31.62304 -2.21133,9.67024 -7.34894,21.38029 -10.54349,24.03152 -1.89031,1.56881 -2.01653,1.13809 -1.20675,-4.11791 0.49742,-3.22849 1.95999,-8.59215 3.25018,-11.91923 1.29017,-3.32706 2.77506,-9.48516 3.29976,-13.68462 1.289,-10.31684 -1.26506,-9.25506 -7.40514,3.07849 -2.54061,5.10335 -5.09196,9.28853 -5.66965,9.30043 -2.89389,0.0596 1.18957,-14.23246 6.16571,-21.57978 1.3415,-1.98076 2.09356,-4.69013 1.67121,-6.02082 -0.51552,-1.62426 1.17063,-4.78266 5.13019,-9.60964 5.69406,-6.94147 12.77872,-21.72324 15.70521,-32.76815 1.92584,-7.26828 3.34736,-8.46433 4.97424,-4.18529 0.92364,2.42933 0.92703,5.6104 0.0107,9.88378 -1.56664,7.30496 -1.60654,8.27378 -0.34502,8.3788 2.23887,0.18638 4.35256,-12.67625 4.53502,-27.59732 0.1088,-8.90268 0.62708,-16.88109 1.1516,-17.72978 2.15254,-3.48288 3.82502,2.60116 5.29168,19.24981 3.10322,35.22619 3.51857,37.69403 7.25042,43.07911 5.09498,7.35202 13.05218,14.61488 13.79102,12.58756 2.38461,-6.54326 6.10764,5.39537 9.87104,31.65344 1.52505,10.6406 3.27429,19.87622 3.88718,20.5236 1.51347,1.5986 5.1637,0.0463 6.1919,-2.63316 0.4608,-1.20082 0.0212,-10.06442 -0.97684,-19.69692 -0.99816,-9.6325 -1.71062,-19.91363 -1.58332,-22.84696 0.12733,-2.93334 0.51841,-16.0417 0.86914,-29.12971 0.70716,-26.38728 0.90011,-27.801 5.81026,-42.57152 4.16697,-12.53496 6.27566,-11.89717 3.42049,1.03456 -1.59652,7.23099 -2.07395,18.3434 -2.11955,49.33333 -0.0564,38.3138 0.0896,40.69296 3.46198,56.43826 3.38725,15.81458 3.8123,16.82378 11.20348,26.60057 4.22545,5.58928 9.87762,11.39207 12.5604,12.89508 2.68276,1.50301 6.14166,3.50864 7.68644,4.45692 2.37022,1.45501 2.93194,1.40297 3.59824,-0.33333 1.14402,-2.98131 2.12441,-2.65111 10.03701,3.38061 14.95472,11.39987 24.70955,14.04387 56.46721,15.30519 27.69628,1.10001 61.03286,8.64558 65.66667,14.86334 2.41501,3.24052 2.16861,7.53795 -0.3762,6.5614 -9.79216,-3.7576 -19.22099,-4.70612 -49.29047,-4.95853 -17.6,-0.14775 -34.85,0.1878 -38.33333,0.74565 -7.49491,1.20032 -7.79351,2.41214 -3.17471,12.88372 1.73724,3.93862 4.87207,11.36112 6.96628,16.49446 2.09423,5.13333 9.82284,18.20352 17.17472,29.04486 17.12698,25.25607 21.02406,32.27398 26.07442,46.95514 5.04078,14.65329 11.20457,39.07212 13.37968,53.0057 1.49605,9.5836 1.39329,11.04492 -1.40644,20 -1.66123,5.31354 -4.74114,12.02531 -6.84422,14.91507 l -3.8238,5.25411 2.9937,3.20165 c 3.44808,3.6876 7.57158,6.15669 8.58669,5.1416 0.38385,-0.38387 -0.62355,-2.55377 -2.23869,-4.82203 -1.61514,-2.26825 -2.59243,-5.02102 -2.17175,-6.11728 0.65505,-1.70705 1.52663,-1.60456 6.07137,0.71399 2.91859,1.48896 7.28438,2.70719 9.70176,2.70719 9.46764,0 20.58302,5.48865 23.9837,11.84289 2.16117,4.03819 10.09281,9.30908 14.16318,9.412 1.71838,0.0435 4.81155,-1.63053 6.9331,-3.75208 z M 545.33333,390 c -1.38132,-1.6644 -1.21237,-2 1.00682,-2 1.46666,0 3.4136,0.9 4.32652,2 1.38132,1.6644 1.21237,2 -1.00682,2 -1.46666,0 -3.4136,-0.9 -4.32652,-2 z M 176.82411,375.04633 c -0.52452,-0.52452 1.77548,-3.45946 5.1111,-6.52209 3.33564,-3.06264 6.06479,-6.76003 6.06479,-8.21641 0,-3.93564 3.45743,-6.41798 6,-4.30783 4.76212,3.9522 -0.54621,12.61871 -10.93379,17.85073 -4.88834,2.46218 -4.96152,2.47619 -6.2421,1.1956 z m 392.50922,-4.67173 c -2.56666,-0.76169 -7.92044,-2.05757 -11.89726,-2.87975 -8.30183,-1.71632 -10.86079,-4.86158 -3.88051,-4.76964 11.98872,0.15794 23.99113,2.3877 25.81523,4.79583 1.03276,1.36343 1.89681,2.92896 1.92014,3.47896 0.0584,1.37877 -6.33009,1.04464 -11.9576,-0.6254 z m -364,-17.43733 c 0,-3.26008 10.18854,-11.67846 17.42778,-14.39987 4.63828,-1.74365 9.7828,-5.20304 14.31992,-9.62935 6.51473,-6.35558 7.22098,-6.71954 8.83106,-4.55092 1.6384,2.20679 1.88836,2.146 3.91896,-0.95309 1.19292,-1.82061 2.18931,-3.78133 2.21419,-4.35713 0.0249,-0.5758 1.20452,-3.44691 2.62143,-6.38024 2.69146,-5.57199 3.47297,-11.33334 1.53734,-11.33334 -0.62112,0 -2.57112,1.27535 -4.33333,2.8341 -1.76221,1.55876 -7.06289,4.5825 -11.77931,6.71946 -9.37674,4.2485 -14.11712,4.17128 -18.15977,-0.2958 -2.29692,-2.53806 -2.18379,-2.5912 5.52841,-2.59608 8.91532,-0.005 12.43807,-1.72814 22.10454,-10.80837 4.63021,-4.3494 6.6407,-7.48055 7.82496,-12.18664 1.23612,-4.91224 2.19186,-6.33333 4.25942,-6.33333 1.46614,0 4.75791,-1.83699 7.31507,-4.0822 2.55716,-2.24522 4.89663,-3.83495 5.19883,-3.53275 0.3022,0.3022 -1.53319,4.00801 -4.07863,8.23513 -4.45075,7.3912 -5.51619,11.02148 -8.81821,30.04648 -1.88012,10.83247 -8.67907,23.82642 -17.31082,33.08388 -6.42248,6.88807 -10.91402,8.4448 -7.85074,2.72102 0.79472,-1.48498 1.1413,-3.0036 0.77018,-3.37472 -1.30024,-1.30026 -17.58868,5.30721 -22.39981,9.08657 -5.14852,4.04437 -9.14147,4.95604 -9.14147,2.08719 z m 7.38615,-49.2706 c 0.41305,-3.11667 1.41461,-9.5573 2.22571,-14.31251 2.18857,-12.83119 6.98864,-16.69453 24.05481,-19.36057 4.93553,-0.77102 6.66143,-3.47606 3.47452,-5.44568 -3.72925,-2.3048 -9.61715,-0.32436 -20.43343,6.87293 -10.42328,6.9358 -11.55518,8.11617 -12.89846,13.4508 -1.19331,4.73905 -1.82042,5.55904 -3.30756,4.32481 -2.23347,-1.85361 -2.37714,-7.00645 -0.30531,-10.95077 3.05403,-5.81427 12.22156,-12.66576 24.32445,-18.17927 6.71762,-3.06022 11.3046,-2.87068 18.41291,0.76084 5.00373,2.55634 8.11611,2.3039 12.31483,-0.99882 2.19464,-1.72631 4.0885,-2.35798 4.83412,-1.61236 2.01389,2.01389 -2.40312,6.89686 -9.4849,10.48548 -6.85416,3.47326 -9.81746,6.8583 -11.30626,12.91536 -1.23278,5.01544 -6.67607,10.10666 -15.06196,14.08776 -3.90704,1.85482 -8.09879,4.93006 -9.31499,6.83386 -2.34724,3.67428 -5.58296,6.68223 -7.26372,6.7524 -0.55867,0.0233 -0.6778,-2.5076 -0.26476,-5.62426 z m 22.03497,-16.80298 c 3.01403,-2.44061 3.01968,-2.5008 0.48104,-5.11986 -3.68138,-3.79802 -7.11748,-4.71899 -9.33456,-2.50191 -2.48818,2.48819 -2.40134,4.66181 0.30572,7.65309 2.78754,3.0802 4.71396,3.07314 8.5478,-0.0313 z m 36.85487,-65.12664 c -0.34927,-0.58872 -1.06067,-3.77038 -1.58087,-7.07038 -1.28938,-8.17951 -5.33262,-13.7283 -13.80186,-18.9412 -3.92468,-2.41567 -8.43122,-5.42218 -10.01452,-6.68111 -2.69852,-2.14568 -2.71894,-2.29175 -0.32612,-2.33333 4.47774,-0.0779 21.52257,8.86774 25.18114,13.21572 4.40943,5.24032 6.82983,13.71581 5.26099,18.42236 -1.19099,3.57296 -3.58796,5.29392 -4.71876,3.38794 z m 227.97865,352.599 c 0.59328,-0.91517 1.70739,-4.06517 2.4758,-7 1.67552,-6.39942 5.06712,-7.19362 5.7055,-1.33605 0.6739,6.18371 2.21066,6.58569 6.76492,1.76957 6.65133,-7.03376 8.75336,-16.31524 6.92457,-30.57541 -2.4906,-19.42059 -11.36179,-51.71872 -17.82352,-64.89161 C 498.88889,462.62663 496,459.43033 496,463.85483 c 0,1.56641 0.58371,3.88988 1.29713,5.16326 0.71343,1.27339 4.16343,11.01524 7.66667,21.64858 6.16888,18.72428 6.36647,19.81796 6.27228,34.71685 -0.0913,14.44272 -0.33593,15.80923 -4,22.34448 -4.05057,7.22463 -6.73589,8.98825 -12.82287,8.42165 -2.8789,-0.26798 -4.28149,0.71588 -7.10669,4.98506 -4.16463,6.29316 -3.92597,10.81685 0.69348,13.1456 4.28619,2.16073 10.20492,2.1892 11.58797,0.0557 z m 521.73103,-4.31873 c 3.3493,-4.03572 -2.695,-15.35065 -8.2002,-15.35065 -2.5194,0 -6.4521,7.43973 -6.4521,12.2058 0,4.52162 11.467,6.98282 14.6523,3.14485 z m 38.1801,-2.28548 c 1.2056,-1.95083 3.1636,-22.67428 3.7539,-39.73184 0.3859,-11.1526 2.0173,-18.7662 5.0187,-23.42213 0.5042,-0.78218 2.2095,-5.88218 3.7896,-11.33334 1.58,-5.45116 4.0798,-13.8112 5.555,-18.57786 1.4753,-4.76667 2.9746,-13.91044 3.3318,-20.31951 0.6116,-10.97209 0.4099,-12.14047 -3.4516,-20 -4.2938,-8.73924 -8.2534,-15.8216 -10.4355,-18.66567 -1.2907,-1.68225 -5.2195,-14.08776 -5.987,-18.90433 -0.224,-1.40591 -1.0936,-2.78465 -1.9324,-3.06391 -2.5432,-0.8467 -11.4177,11.24335 -12.7103,17.31568 -0.66,3.10075 -1.4232,22.4735 -1.6959,43.05055 -0.2989,22.54861 -1.11,39.69351 -2.0417,43.15327 -1.5124,5.61689 -3.9117,8.76494 -10.7564,14.11352 -5.8893,4.60193 -9.1488,10.30528 -12.5661,21.98706 -4.2234,14.43794 -4.1936,15.23283 0.7025,18.71918 2.2406,1.59541 5.5515,5.24161 7.3576,8.10266 3.1272,4.95378 3.5345,5.16184 8.5385,4.36167 4.442,-0.71029 6.2166,-0.20307 11.4747,3.27973 6.2845,4.16266 9.4524,4.14564 12.0546,-0.0647 z M 358.89501,341.79335 c 1.34108,-1.21366 2.43832,-3.17438 2.43832,-4.35715 0,-1.18279 1.43192,-4.25777 3.18206,-6.83332 4.10108,-6.03528 6.72424,-25.18369 4.92293,-35.93621 -2.31649,-13.82788 -7.9704,-27.86955 -15.41837,-38.29211 -6.10107,-8.53771 -6.97384,-7.50951 -5.62392,6.62544 2.20185,23.05575 -1.6032,48.96893 -8.59184,58.51211 -1.31276,1.7926 -0.846,3.198 2.63346,7.92933 2.32596,3.16281 4.22902,6.39887 4.22902,7.19123 0,2.89917 4.22756,7.36733 6.97061,7.36733 1.55068,0 3.91665,-0.99299 5.25773,-2.20665 z M 121.48082,330.61931 c 12.90341,-6.77783 19.85251,-15.42986 19.85251,-24.71752 0,-4.70524 -0.13621,-4.84327 -4,-4.05312 -2.2,0.4499 -5.95,1.20166 -8.33333,1.6706 -5.75296,1.13192 -15.20323,7.71618 -17.52517,12.21026 -1.02408,1.9821 -2.57974,6.27172 -3.45702,9.53251 -1.38955,5.16489 -1.30987,6.13725 0.61852,7.54732 2.32548,1.70044 6.93375,0.91471 12.84449,-2.19005 z m 206.14726,-8.36668 c 8.11491,-7.48007 12.20292,-15.58596 7.8604,-15.58596 -2.48661,0 -19.48848,20.34816 -19.48848,23.32418 0,1.49572 5.79207,-2.35877 11.62808,-7.73822 z m 271.52369,-62.58596 c -0.71034,-3.93848 -4.29006,-13.03976 -11.3386,-28.8279 -4.72766,-10.58956 -4.27777,-4.48826 0.82243,11.1534 4.25848,13.06027 8.63357,22.00783 10.76117,22.00783 0.29511,0 0.18486,-1.95 -0.245,-4.33333 z m -353.58404,-120.336 c 5.30707,-0.24582 7.33992,-1.23324 13.66667,-6.63835 8.41456,-7.18878 9.25297,-10.28131 3.44013,-12.68906 -4.8988,-2.02915 -7.47353,-0.57563 -19.67453,11.10689 -8.26825,7.91689 -10.48521,11.43036 -6,9.50888 1.28333,-0.54979 5.13881,-1.12955 8.56773,-1.28836 z m 322.61134,-32.99734 c 0.44672,-4.15803 -0.57632,-13.884007 -1.67878,-15.95991 -0.98953,-1.863279 -0.19733,-2.813887 4.22519,-5.070089 7.54237,-3.847834 6.79568,-7.161138 -1.73747,-7.709719 -4.23849,-0.272485 -6.32134,0.118411 -6.32134,1.186343 0,0.876002 -1.02212,2.340128 -2.27139,3.253613 -2.12,1.550179 -2.12575,2.004331 -0.0861,6.813657 1.20189,2.834026 2.93744,8.302775 3.85678,12.152775 1.55191,6.49899 3.59604,9.21558 4.01315,5.33333 z"
       id="path3189" />
  </g>
</svg>
